#!OML:ASF G:\ViconDB\ViconDB\414\test\team2\shane.ASF
:FULLY-SPECIFIED
:DEGREES
175
root 3.37842 16.3995 -4.9465 -5.63182 -0.90552 -4.86597
lowerback 7.61086 4.84694 3.38919
upperback 2.86692 6.65867 -2.1143
thorax -0.633947 3.37381 -4.57535
lowerneck -18.3739 -9.35809 -10.8662
upperneck 21.2692 -14.1854 15.8957
head 12.0765 -5.5321 5.33506
rclavicle -4.96962e-015 9.54166e-015
rhumerus -30.2913 5.00477 -96.7094
rradius 23.1072
rwrist 41.9279
rhand -28.1253 -12.892
rfingers 7.12502
rthumb -1.50695 -42.8664
lclavicle -4.96962e-015 9.54166e-015
lhumerus -42.7287 -7.77301 91.4081
lradius 26.823
lwrist -10.7176
lhand -39.5001 7.73726
lfingers 7.12502
lthumb -12.4858 37.3443
rfemur 17.7211 -11.408 13.7223
rtibia 48.1259
rfoot 5.7373 11.0985
rtoes -11.9397
lfemur -19.1079 8.16657 -14.8781
ltibia 44.4748
lfoot -23.7177 -10.9705
ltoes -5.3595
176
root 3.40036 16.3863 -4.77304 -5.89591 -0.799787 -4.60539
lowerback 7.73854 4.52634 2.94525
upperback 3.07695 6.20306 -2.01312
thorax -0.593768 3.14522 -4.19932
lowerneck -18.5925 -9.04992 -10.7071
upperneck 21.5171 -13.7689 15.7662
head 12.122 -5.32902 5.34418
rclavicle 2.68359e-015 -7.95139e-015
rhumerus -30.7629 5.76187 -96.8047
rradius 23.6634
rwrist 40.7229
rhand -27.4527 -13.2033
rfingers 7.12502
rthumb -0.857276 -43.1813
lclavicle 2.68359e-015 -7.95139e-015
lhumerus -42.2572 -7.6081 91.6053
lradius 26.9656
lwrist -10.8166
lhand -39.2863 7.19256
lfingers 7.12502
lthumb -12.2797 36.812
rfemur 15.9255 -12.2033 12.7558
rtibia 52.2313
rfoot 4.98686 9.60817
rtoes -11.4848
lfemur -18.33 8.33253 -15.0918
ltibia 44.8475
lfoot -24.3341 -11.1518
ltoes -5.48104
177
root 3.42152 16.3725 -4.60551 -6.17992 -0.724604 -4.54824
lowerback 7.91761 4.19669 2.62173
upperback 3.28205 5.74562 -1.84706
thorax -0.573209 2.91492 -3.82514
lowerneck -18.6612 -8.71086 -10.332
upperneck 21.6449 -13.3092 15.4391
head 12.0499 -5.12221 5.24624
rclavicle 1.5207e-014 2.22639e-014
rhumerus -31.2214 6.41367 -96.7743
rradius 24.2284
rwrist 39.3971
rhand -27.1746 -12.7198
rfingers 7.12502
rthumb -0.588738 -42.6988
lclavicle 1.5207e-014 2.22639e-014
lhumerus -41.8446 -8.151 92.1225
lradius 27.2425
lwrist -10.3325
lhand -39.2122 6.98264
lfingers 7.12502
lthumb -12.2082 36.6064
rfemur 14.169 -12.9077 12.1278
rtibia 56.0641
rfoot 2.64528 6.48883
rtoes -12.7998
lfemur -17.575 8.50361 -15.0793
ltibia 45.2472
lfoot -24.9488 -11.3374
ltoes -5.73857
178
root 3.44348 16.3555 -4.43688 -6.47509 -1.13831 -4.34375
lowerback 7.87887 3.98462 2.02715
upperback 3.64147 5.42243 -1.61902
thorax -0.287061 2.75403 -3.21832
lowerneck -18.9221 -8.32901 -10.18
upperneck 21.7603 -12.7535 15.2864
head 12.0331 -4.86288 5.26713
rclavicle -6.19214e-014 -7.95139e-016
rhumerus -31.483 7.89333 -97.0122
rradius 25.2333
rwrist 35.8469
rhand -26.4028 -12.7546
rfingers 7.12502
rthumb 0.156724 -42.7343
lclavicle -6.19214e-014 -7.95139e-016
lhumerus -41.0852 -8.02788 92.4711
lradius 27.5281
lwrist -9.82948
lhand -38.9014 7.04323
lfingers 7.12502
lthumb -11.9086 36.6845
rfemur 12.3793 -13.1422 11.4641
rtibia 59.5684
rfoot 0.633164 3.40199
rtoes -12.7162
lfemur -16.7689 9.04566 -15.1486
ltibia 45.7003
lfoot -25.502 -11.4254
ltoes -5.9234
179
root 3.4653 16.3386 -4.27485 -6.79632 -1.39786 -4.135
lowerback 8.18867 3.75623 1.69531
upperback 3.80814 5.09801 -1.54421
thorax -0.344591 2.58731 -2.95172
lowerneck -18.9353 -7.99919 -9.97435
upperneck 21.9213 -12.3089 15.1034
head 11.997 -4.66285 5.25154
rclavicle 3.21037e-014 -1.59028e-015
rhumerus -32.1079 9.0858 -97.1173
rradius 25.9588
rwrist 35.2865
rhand -26.542 -12.7949
rfingers 7.12502
rthumb 0.0223021 -42.7747
lclavicle 3.21037e-014 -1.59028e-015
lhumerus -40.5804 -8.58746 92.8847
lradius 27.5458
lwrist -9.38986
lhand -39.3643 7.06034
lfingers 7.12502
lthumb -12.3549 36.6753
rfemur 10.6197 -13.6793 10.7477
rtibia 62.7206
rfoot -0.949959 1.49741
rtoes -12.5187
lfemur -15.9915 9.38733 -15.2602
ltibia 46.1345
lfoot -25.9288 -11.3885
ltoes -6.20582
180
root 3.49047 16.3071 -4.102 -7.25119 -1.77953 -4.003
lowerback 8.24473 3.53445 1.4477
upperback 4.17041 4.787 -1.50762
thorax -0.0441059 2.43559 -2.74202
lowerneck -19.0048 -7.60107 -9.39873
upperneck 21.889 -11.8326 14.8652
head 11.8667 -4.4259 5.14729
rclavicle -1.49089e-015 -1.35174e-014
rhumerus -32.3745 10.1297 -97.3085
rradius 26.6666
rwrist 34.1379
rhand -26.5028 -12.8739
rfingers 7.12502
rthumb 0.0601016 -42.8537
lclavicle -1.49089e-015 -1.35174e-014
lhumerus -39.9676 -9.54486 93.2674
lradius 27.8145
lwrist -8.88395
lhand -39.2768 7.46874
lfingers 7.12502
lthumb -12.2705 37.0888
rfemur 9.11468 -14.0165 10.1333
rtibia 65.4696
rfoot -2.41369 0.428705
rtoes -12.6487
lfemur -15.0452 9.74973 -15.2924
ltibia 46.6085
lfoot -26.4349 -11.1707
ltoes -6.2634
181
root 3.51109 16.2694 -3.93829 -7.65515 -1.9911 -3.75564
lowerback 8.27656 3.28313 1.02638
upperback 4.51719 4.42543 -1.38323
thorax 0.233442 2.252 -2.34184
lowerneck -18.9574 -7.22369 -9.19678
upperneck 21.8069 -11.2828 14.6662
head 11.7146 -4.18995 5.13467
rclavicle -2.77305e-014 1.59028e-014
rhumerus -32.6602 11.0536 -97.1415
rradius 27.3845
rwrist 33.5778
rhand -26.5883 -12.7052
rfingers 7.12502
rthumb -0.02242 -42.6849
lclavicle -2.77305e-014 1.59028e-014
lhumerus -39.1975 -10.443 93.8844
lradius 27.7405
lwrist -7.9079
lhand -39.6506 7.70663
lfingers 7.12502
lthumb -12.631 37.3047
rfemur 7.57323 -14.252 9.52713
rtibia 67.8686
rfoot -3.84924 -0.443428
rtoes -11.9821
lfemur -14.2001 10.2615 -15.4961
ltibia 47.0324
lfoot -27.0286 -11.0139
ltoes -6.18351
182
root 3.53543 16.2358 -3.77025 -8.065 -2.28581 -3.74778
lowerback 8.16676 3.01191 0.868573
upperback 4.88119 4.05699 -1.17859
thorax 0.626343 2.06773 -1.99683
lowerneck -18.8576 -6.81275 -9.00014
upperneck 21.7535 -10.6652 14.3711
head 11.5495 -3.93563 5.09786
rclavicle -1.80894e-014 2.38542e-015
rhumerus -32.9691 12.0894 -96.9463
rradius 27.8656
rwrist 33.5553
rhand -27.0366 -12.4514
rfingers 7.12502
rthumb -0.455466 -42.4307
lclavicle -1.80894e-014 2.38542e-015
lhumerus -38.5224 -11.3399 94.4464
lradius 27.6077
lwrist -8.13401
lhand -40.114 8.56545
lfingers 7.12502
lthumb -13.0777 38.1354
rfemur 6.10114 -14.4417 9.26071
rtibia 69.8838
rfoot -5.34994 -0.811419
rtoes -12.8095
lfemur -13.247 10.6775 -15.3846
ltibia 47.4298
lfoot -27.8345 -10.8767
ltoes -6.28004
183
root 3.55996 16.1922 -3.61197 -8.50814 -2.33559 -3.62789
lowerback 8.23538 2.71249 0.609002
upperback 5.27123 3.64405 -1.05699
thorax 0.95124 1.85777 -1.68954
lowerneck -18.9262 -6.43856 -8.70477
upperneck 21.7116 -10.1331 14.1082
head 11.4358 -3.69926 5.03746
rclavicle -5.51627e-014 1.98785e-014
rhumerus -32.9121 12.0793 -96.4049
rradius 28.0903
rwrist 34.3498
rhand -27.5756 -12.049
rfingers 7.12502
rthumb -0.97601 -42.0265
lclavicle -5.51627e-014 1.98785e-014
lhumerus -37.6652 -12.5868 94.9479
lradius 27.5118
lwrist -7.96169
lhand -40.3535 8.62677
lfingers 7.12502
lthumb -13.3086 38.1818
rfemur 4.76362 -14.7449 8.86416
rtibia 71.6052
rfoot -6.77371 -0.561805
rtoes -12.823
lfemur -12.2224 10.743 -15.4453
ltibia 47.7548
lfoot -28.8016 -10.5915
ltoes -6.34509
184
root 3.58713 16.1524 -3.45307 -8.99009 -2.42467 -3.46606
lowerback 8.24574 2.41642 0.262743
upperback 5.68656 3.23036 -0.876347
thorax 1.33228 1.64207 -1.27089
lowerneck -18.8004 -6.13448 -8.78196
upperneck 21.5623 -9.65851 14.1041
head 11.292 -3.5016 5.12783
rclavicle -3.57812e-014 2.62396e-014
rhumerus -33.075 13.2464 -96.3
rradius 28.7757
rwrist 32.9634
rhand -28.1805 -12.6608
rfingers 7.12502
rthumb -1.56024 -42.6348
lclavicle -3.57812e-014 2.62396e-014
lhumerus -36.7744 -13.5324 95.3568
lradius 27.6167
lwrist -7.99985
lhand -40.5345 9.17088
lfingers 7.12502
lthumb -13.483 38.7144
rfemur 3.41588 -15.0104 8.51442
rtibia 73.0011
rfoot -8.32867 -0.248221
rtoes -14.0677
lfemur -11.1308 10.6767 -15.5685
ltibia 48.0396
lfoot -29.685 -10.2423
ltoes -6.55275
185
root 3.61578 16.1105 -3.29864 -9.32983 -2.517 -3.45573
lowerback 8.20469 2.12254 0.0364586
upperback 6.05857 2.82649 -0.588674
thorax 1.70568 1.42951 -0.810723
lowerneck -19.0113 -5.81732 -8.73511
upperneck 21.7162 -9.1209 13.7326
head 11.289 -3.28482 5.07311
rclavicle -1.13307e-014 7.95139e-015
rhumerus -33.0711 13.7671 -95.6624
rradius 29.1598
rwrist 33.2982
rhand -28.707 -12.7053
rfingers 7.12502
rthumb -2.06874 -42.675
lclavicle -1.13307e-014 7.95139e-015
lhumerus -35.6312 -13.4202 95.3144
lradius 27.4064
lwrist -10.0351
lhand -40.1614 8.73366
lfingers 7.12502
lthumb -13.1234 38.3007
rfemur 1.96429 -15.2206 8.43834
rtibia 74.1002
rfoot -10.0169 0.111729
rtoes -14.8686
lfemur -10.2136 10.5104 -15.6133
ltibia 48.3644
lfoot -30.591 -9.59611
ltoes -7.00213
186
root 3.64282 16.0737 -3.14416 -9.67773 -2.33862 -3.48696
lowerback 8.24612 1.73299 -0.012762
upperback 6.36914 2.3053 -0.379528
thorax 1.98797 1.16317 -0.529507
lowerneck -19.2718 -5.47092 -8.53989
upperneck 21.9733 -8.54357 13.1677
head 11.3138 -3.05657 4.92834
rclavicle -3.48867e-014 1.51076e-014
rhumerus -32.9485 13.6045 -94.8922
rradius 29.2242
rwrist 34.3062
rhand -29.4462 -12.4867
rfingers 7.12502
rthumb -2.78266 -42.4483
lclavicle -3.48867e-014 1.51076e-014
lhumerus -34.4917 -13.1074 95.0847
lradius 27.5697
lwrist -11.2371
lhand -39.5991 8.17334
lfingers 7.12502
lthumb -12.5813 37.7745
rfemur 0.650013 -15.5734 8.3844
rtibia 74.9836
rfoot -12.0587 0.611661
rtoes -16.0931
lfemur -9.38738 10.0409 -15.6436
ltibia 48.6913
lfoot -31.22 -9.29004
ltoes -6.90977
187
root 3.66937 16.0628 -2.98815 -9.98944 -2.09379 -3.38487
lowerback 8.23348 1.32455 -0.311325
upperback 6.69028 1.74309 -0.104729
thorax 2.3073 0.864675 -0.0387967
lowerneck -19.5193 -5.14044 -8.66872
upperneck 22.1845 -7.92863 12.7776
head 11.3428 -2.8222 4.91124
rclavicle -2.98177e-015 -1.27222e-014
rhumerus -32.889 13.5352 -94.064
rradius 29.3094
rwrist 35.6178
rhand -30.5628 -13.0079
rfingers 7.12502
rthumb -3.86093 -42.9527
lclavicle -2.98177e-015 -1.27222e-014
lhumerus -33.6059 -13.5783 95.3416
lradius 27.8338
lwrist -12.4471
lhand -39.4489 7.70525
lfingers 7.12502
lthumb -12.4365 37.3153
rfemur -0.645822 -16.0238 8.2615
rtibia 75.4935
rfoot -13.2658 1.04559
rtoes -15.7839
lfemur -8.82375 9.05597 -15.8355
ltibia 49.0716
lfoot -31.3241 -9.76227
ltoes -5.38794
188
root 3.69194 16.0026 -2.84937 -10.3223 -1.95445 -3.5929
lowerback 8.39906 0.954415 -0.283527
upperback 6.93839 1.24793 0.207557
thorax 2.47026 0.609363 0.297505
lowerneck -19.6967 -4.82971 -8.42489
upperneck 22.3541 -7.3716 12.0683
head 11.3221 -2.62376 4.69612
rclavicle 7.05686e-015 -1.59028e-015
rhumerus -33.1032 13.8382 -93.6943
rradius 29.8634
rwrist 35.1908
rhand -31.0543 -13.9358
rfingers 7.12502
rthumb -4.33558 -43.8714
lclavicle 7.05686e-015 -1.59028e-015
lhumerus -32.6817 -13.9734 95.3864
lradius 28.2491
lwrist -13.7594
lhand -39.1808 7.8835
lfingers 7.12502
lthumb -12.178 37.509
rfemur -2.16015 -16.4214 8.60073
rtibia 76.0774
rfoot -14.2388 1.18033
rtoes -15.9969
lfemur -7.81152 9.03232 -15.7411
ltibia 49.3112
lfoot -32.4949 -8.54905
ltoes -6.67515
189
root 3.71932 15.999 -2.70284 -10.6366 -1.83111 -3.78597
lowerback 8.57786 0.549834 -0.41758
upperback 7.16684 0.694374 0.673712
thorax 2.60896 0.313875 0.887525
lowerneck -19.8933 -4.44931 -8.47986
upperneck 22.51 -6.63696 11.4383
head 11.2996 -2.36288 4.59184
rclavicle 7.90169e-015 -3.97569e-015
rhumerus -33.2645 13.9226 -92.8416
rradius 30.2844
rwrist 35.2593
rhand -31.5923 -14.2342
rfingers 7.12502
rthumb -4.85504 -44.1585
lclavicle 7.90169e-015 -3.97569e-015
lhumerus -31.7358 -13.5148 95.6188
lradius 28.598
lwrist -14.8242
lhand -39.4086 7.59703
lfingers 7.12502
lthumb -12.3976 37.2094
rfemur -3.5504 -16.7234 9.05647
rtibia 76.2119
rfoot -15.0659 1.40324
rtoes -16.5715
lfemur -7.14783 8.36556 -15.5698
ltibia 49.5109
lfoot -32.6988 -9.10466
ltoes -5.59199
